<?xml version="1.0" encoding="utf-8"?>
<!-- Generator: Adobe Illustrator 19.0.0, SVG Export Plug-In . SVG Version: 6.00 Build 0)  -->
<svg version="1.1" id="Layer_1" xmlns="http://www.w3.org/2000/svg" xmlns:xlink="http://www.w3.org/1999/xlink" x="0px" y="0px"
	 width="244.5px" height="144px" viewBox="0 0 244.5 144" style="enable-background:new 0 0 244.5 144;" xml:space="preserve">
<style type="text/css">
	.st0{fill:#4FB3CF;}
	.st1{fill:#BCE4E5;}
</style>
<g>
	<path class="st0" d="M0,120.7h5.7l5.5,16.6l5.4-16.6h5.4l-8.3,22.7H8.3L0,120.7z"/>
	<path class="st0" d="M31.3,120.7h5.1v22.7h-5.1V120.7z"/>
	<path class="st0" d="M54.2,120.7h5.7l8.3,22.7h-5.6l-1.7-5.2h-8l-1.7,5.2h-5.4L54.2,120.7z M59.6,134.2l-2.8-8.6l-2.8,8.6H59.6z"/>
	<path class="st0" d="M92.1,136.6c0.3,0.3,0.6,0.6,1,1c0.4,0.3,0.8,0.6,1.3,0.9c0.5,0.3,1,0.5,1.6,0.7c0.6,0.2,1.2,0.3,1.9,0.3
		c0.4,0,0.8-0.1,1.2-0.2c0.4-0.1,0.7-0.3,1.1-0.5c0.3-0.2,0.6-0.5,0.8-0.8c0.2-0.3,0.3-0.7,0.3-1c0-0.8-0.4-1.5-1.2-2
		c-0.8-0.5-2.1-0.9-3.9-1.4c-0.9-0.2-1.7-0.5-2.4-0.9c-0.7-0.4-1.4-0.9-1.9-1.4c-0.5-0.5-0.9-1.2-1.2-1.9c-0.3-0.7-0.4-1.5-0.4-2.3
		c0-1,0.2-1.8,0.5-2.7c0.3-0.8,0.9-1.6,1.5-2.2c0.7-0.6,1.6-1.2,2.6-1.5c1-0.4,2.2-0.6,3.7-0.6c1.2,0,2.2,0.1,3.1,0.4
		c0.9,0.2,1.6,0.5,2.3,0.8c0.6,0.3,1.1,0.7,1.5,1c0.4,0.4,0.7,0.6,0.9,0.8l-3,3.3c-0.2-0.2-0.5-0.4-0.9-0.7
		c-0.3-0.2-0.7-0.5-1.1-0.7s-0.9-0.4-1.3-0.5c-0.5-0.1-1-0.2-1.5-0.2c-0.4,0-0.7,0.1-1.1,0.2c-0.4,0.1-0.7,0.3-1,0.5
		c-0.3,0.2-0.5,0.4-0.7,0.7c-0.2,0.3-0.3,0.5-0.3,0.8c0,0.8,0.4,1.4,1.2,1.9c0.8,0.5,1.9,0.9,3.4,1.2c0.8,0.2,1.7,0.5,2.5,0.8
		c0.8,0.4,1.5,0.8,2.2,1.4c0.6,0.6,1.1,1.3,1.5,2.1c0.4,0.8,0.6,1.8,0.6,3c0,1-0.2,2-0.7,2.8c-0.5,0.9-1.1,1.6-1.9,2.2
		c-0.8,0.6-1.7,1.1-2.8,1.5c-1.1,0.4-2.2,0.5-3.4,0.5c-1.1,0-2.2-0.1-3.1-0.3c-0.9-0.2-1.8-0.5-2.5-0.8c-0.7-0.4-1.4-0.8-2-1.2
		c-0.6-0.5-1.1-0.9-1.5-1.4L92.1,136.6z"/>
	<path class="st0" d="M122.2,125.2h-7.3v-4.5h19.8v4.5h-7.3v18.2h-5.2V125.2z"/>
	<path class="st0" d="M144.2,120.7h5.2v13.4c0,0.7,0.1,1.4,0.2,2c0.1,0.6,0.4,1.1,0.7,1.5c0.3,0.4,0.8,0.8,1.3,1
		c0.6,0.2,1.2,0.4,2.1,0.4c0.8,0,1.5-0.1,2-0.4c0.6-0.2,1-0.6,1.3-1c0.3-0.4,0.6-0.9,0.7-1.5c0.1-0.6,0.2-1.3,0.2-2v-13.4h5.2v14.1
		c0,1.4-0.2,2.6-0.7,3.7c-0.4,1.1-1.1,2.1-1.9,2.9c-0.8,0.8-1.8,1.4-3,1.9c-1.2,0.5-2.5,0.7-3.9,0.7c-1.5,0-2.8-0.2-3.9-0.7
		c-1.2-0.4-2.2-1.1-3-1.9c-0.8-0.8-1.5-1.8-1.9-2.9c-0.4-1.1-0.7-2.4-0.7-3.7V120.7z"/>
	<path class="st0" d="M174.3,120.7h8.6c1.7,0,3.4,0.2,4.8,0.7c1.5,0.5,2.8,1.1,3.8,2.1c1.1,0.9,1.9,2.1,2.5,3.6
		c0.6,1.5,0.9,3.2,0.9,5.1c0,1.9-0.3,3.5-0.9,4.9c-0.6,1.4-1.5,2.6-2.5,3.5c-1.1,0.9-2.4,1.6-3.8,2.1c-1.5,0.5-3.1,0.7-4.8,0.7h-8.5
		V120.7z M182.5,138.8c2.3,0,4-0.6,5.2-1.8c1.2-1.2,1.8-2.8,1.8-4.9c0-1-0.1-2-0.4-2.8c-0.3-0.9-0.7-1.6-1.3-2.2
		c-0.6-0.6-1.3-1.1-2.2-1.4c-0.9-0.3-1.9-0.5-3.2-0.5h-3.1v13.6H182.5z"/>
	<path class="st0" d="M205.5,120.7h5.1v22.7h-5.1V120.7z"/>
	<path class="st0" d="M232.7,144c-1.7,0-3.2-0.3-4.7-0.9c-1.4-0.6-2.7-1.5-3.7-2.5c-1.1-1.1-1.9-2.3-2.5-3.8c-0.6-1.5-0.9-3-0.9-4.7
		c0-1.7,0.3-3.3,0.9-4.7c0.6-1.5,1.4-2.7,2.5-3.8c1.1-1.1,2.3-1.9,3.7-2.5c1.4-0.6,3-0.9,4.7-0.9c1.7,0,3.2,0.3,4.7,0.9
		c1.4,0.6,2.7,1.5,3.7,2.5c1.1,1.1,1.9,2.3,2.5,3.8c0.6,1.5,0.9,3,0.9,4.7c0,1.7-0.3,3.2-0.9,4.7c-0.6,1.5-1.4,2.7-2.5,3.8
		c-1.1,1.1-2.3,1.9-3.7,2.5C236,143.7,234.4,144,232.7,144z M232.7,139.1c1,0,1.9-0.2,2.7-0.6c0.8-0.4,1.5-0.9,2-1.6
		c0.6-0.7,1-1.4,1.3-2.3c0.3-0.9,0.4-1.8,0.4-2.8c0-1-0.1-1.9-0.4-2.8c-0.3-0.9-0.7-1.6-1.3-2.3c-0.6-0.6-1.2-1.2-2-1.5
		c-0.8-0.4-1.7-0.6-2.7-0.6c-1,0-1.9,0.2-2.7,0.6c-0.8,0.4-1.5,0.9-2,1.5c-0.6,0.6-1,1.4-1.3,2.3c-0.3,0.9-0.4,1.8-0.4,2.8
		c0,1,0.1,1.9,0.4,2.8c0.3,0.9,0.7,1.6,1.3,2.3c0.6,0.7,1.2,1.2,2,1.6C230.8,139,231.7,139.1,232.7,139.1z"/>
</g>
<g>
	<path class="st0" d="M14.8,0h32.4c8.8,0,15.1,5.3,17.6,13.1l6.8,17.9h0l15.6,42c2.9,7,9.4,12.9,17.6,12.9H69.4
		c-8.6,0-14.9-5.5-17.6-12.9c-2.7-7.4-5.6-15.1-6.6-17.8c-1-2.7-13.3-34.3-16.3-42.3C26.3,6,21.1,1.3,14.8,0.2L14.8,0z"/>
	<path class="st0" d="M218.9,85.9h-32.4c-8.8,0-15.1-5.3-17.6-13.1l-6.8-17.9h0l-15.6-42c-2.9-7-9.4-12.9-17.6-12.9h35.4
		c8.6,0,14.9,5.5,17.6,12.9c2.7,7.4,5.6,15.1,6.6,17.8c1,2.7,13.3,34.3,16.3,42.3c2.6,6.9,7.8,11.6,14,12.7L218.9,85.9z"/>
	<g>
		<path class="st1" d="M139.8,29.9c-4.3,11.1-9.2,23.8-9.8,25.3c-1,2.7-3.9,10.4-6.6,17.8c-2.7,7.4-9,12.9-17.7,12.9H70.2
			c8.3,0,14.8-5.8,17.7-12.9l15.6-42h0l0.5-1.2L139.8,29.9z"/>
		<path class="st1" d="M142.4,23.1c1.7-4.4,3.1-8.1,3.9-10.2c3-8,9.5-13.1,17.1-12.9h-35.5c-8.9,0-15.1,5.3-17.6,13.1l-3.8,9.8
			L142.4,23.1z"/>
	</g>
</g>
</svg>
