<?xml version="1.0" encoding="utf-8"?>
<!DOCTYPE svg PUBLIC "-//W3C//DTD SVG 1.1//EN" "http://www.w3.org/Graphics/SVG/1.1/DTD/svg11.dtd">
<svg version="1.1" id="Layer_1" xmlns="http://www.w3.org/2000/svg" xmlns:xlink="http://www.w3.org/1999/xlink" x="0px" y="0px"
	 viewBox="0 0 204.1 85.9" style="enable-background:new 0 0 204.1 85.9;" xml:space="preserve">
<g>
	<path d="M204.1,85.7c-6.2-1-11.4-5.8-14-12.7c-3-8-15.3-39.6-16.3-42.3c-1-2.7-3.9-10.4-6.6-17.8c-2.7-7.4-9-12.9-17.6-12.9h-2.3
		c0.5,0,0.9,0,1.4,0h-35.5c-8.9,0-15.1,5.3-17.6,13.1L91.7,23l35.9,0.1c1.7-4.4,3.1-8.1,3.9-10.2c0-0.1,0.1-0.2,0.1-0.2
		c0,0.1,0.1,0.1,0.1,0.2l15.6,42h0l6.8,17.9c2.5,7.8,8.8,13.1,17.6,13.1h32.4L204.1,85.7z"/>
	<path d="M88.7,31L88.7,31L73,73c-0.1,0.3-0.2,0.5-0.3,0.7c-0.1-0.2-0.2-0.5-0.3-0.7l-15.6-42h0L50,13.1C47.5,5.3,41.2,0,32.4,0H0
		l0,0.2C6.2,1.3,11.4,6,14,12.9c3,8,15.3,39.6,16.3,42.3c1,2.7,3.9,10.4,6.6,17.8c2.7,7.4,9,12.9,17.6,12.9H90c0,0-0.1,0-0.1,0h1
		c8.7,0,15-5.5,17.7-12.9c2.7-7.4,5.6-15.1,6.6-17.8c0.6-1.5,5.5-14.2,9.8-25.3l-35.9-0.1L88.7,31z"/>
</g>
</svg>
